<svg xmlns="http://www.w3.org/2000/svg" width="32" height="32" viewBox="0 0 32 32" version="1.1"><path d="M 8.425 7.334 C 8.144 8.067, 8.046 12.455, 8.207 17.084 L 8.500 25.500 16.250 25.792 L 24 26.084 24 16.042 L 24 6 16.469 6 C 11.114 6, 8.789 6.385, 8.425 7.334 M 9 14 C 9 19.556, 9.310 21, 10.500 21 C 11.690 21, 12 19.556, 12 14 C 12 8.444, 11.690 7, 10.500 7 C 9.310 7, 9 8.444, 9 14 M 13 14 L 13 21 18 21 L 23 21 23 17.500 C 23 14.952, 22.563 14, 21.393 14 C 20.488 14, 20.003 14.566, 20.283 15.295 C 20.575 16.055, 19.990 16.650, 18.869 16.735 C 17.817 16.814, 17.218 16.456, 17.537 15.939 C 17.857 15.423, 17.191 15, 16.059 15 C 12.381 15, 13.884 13.023, 18.500 11.789 C 21.712 10.930, 23 10.072, 23 8.793 C 23 7.308, 22.140 7, 18 7 L 13 7 13 14 M 18.507 12.989 C 18.157 13.555, 18.558 13.723, 19.448 13.382 C 21.180 12.717, 21.497 12, 20.059 12 C 19.541 12, 18.843 12.445, 18.507 12.989 M 9 23.500 C 9 25.115, 14.655 25.404, 20.500 24.087 L 23.500 23.411 19.500 22.717 C 12.774 21.549, 9 21.830, 9 23.500" stroke="none" fill="#fcdccb" fill-rule="evenodd"/><path d="M 8.218 1.607 C 2.700 4.421, 0.500 8.523, 0.500 16 C 0.500 21.313, 0.940 23.086, 2.910 25.712 C 6.359 30.309, 11.169 32.317, 17.480 31.793 C 23.815 31.268, 27.735 28.675, 30.759 23.009 C 32.890 19.017, 34.012 9.256, 32.212 10.369 C 31.779 10.637, 30.844 9.544, 30.134 7.940 C 27.139 1.174, 15.603 -2.159, 8.218 1.607 M 8.425 7.334 C 8.144 8.067, 8.046 12.455, 8.207 17.084 L 8.500 25.500 16.250 25.792 L 24 26.084 24 16.042 L 24 6 16.469 6 C 11.114 6, 8.789 6.385, 8.425 7.334 M 9 14 C 9 19.556, 9.310 21, 10.500 21 C 11.690 21, 12 19.556, 12 14 C 12 8.444, 11.690 7, 10.500 7 C 9.310 7, 9 8.444, 9 14 M 13 14 L 13 21 18 21 L 23 21 23 17.500 C 23 14.952, 22.563 14, 21.393 14 C 20.488 14, 20.003 14.566, 20.283 15.295 C 20.575 16.055, 19.990 16.650, 18.869 16.735 C 17.817 16.814, 17.218 16.456, 17.537 15.939 C 17.857 15.423, 17.191 15, 16.059 15 C 12.381 15, 13.884 13.023, 18.500 11.789 C 21.712 10.930, 23 10.072, 23 8.793 C 23 7.308, 22.140 7, 18 7 L 13 7 13 14 M 0.300 16 C 0.300 19.025, 0.487 20.263, 0.716 18.750 C 0.945 17.238, 0.945 14.763, 0.716 13.250 C 0.487 11.738, 0.300 12.975, 0.300 16 M 18.507 12.989 C 18.157 13.555, 18.558 13.723, 19.448 13.382 C 21.180 12.717, 21.497 12, 20.059 12 C 19.541 12, 18.843 12.445, 18.507 12.989 M 9 23.500 C 9 25.115, 14.655 25.404, 20.500 24.087 L 23.500 23.411 19.500 22.717 C 12.774 21.549, 9 21.830, 9 23.500" stroke="none" fill="#fbb48c" fill-rule="evenodd"/></svg>